{
	"asset":{
		"generator":"Khronos glTF Blender I/O v4.3.47",
		"version":"2.0"
	},
	"extensionsUsed":[
		"KHR_materials_specular",
		"KHR_materials_ior"
	],
	"scene":0,
	"scenes":[
		{
			"name":"Scene",
			"nodes":[
				0,
				1,
				2
			]
		}
	],
	"nodes":[
		{
			"mesh":0,
			"name":"Object_10"
		},
		{
			"mesh":1,
			"name":"Object_11"
		},
		{
			"mesh":2,
			"name":"Object_12"
		}
	],
	"materials":[
		{
			"doubleSided":true,
			"emissiveFactor":[
				1,
				0.0037327460013329983,
				0
			],
			"extensions":{
				"KHR_materials_specular":{
					"specularColorFactor":[
						1.0,
						0.041117604821920395,
						0.0022649120073765516
					]
				},
				"KHR_materials_ior":{
					"ior":1
				}
			},
			"name":"Material.006",
			"pbrMetallicRoughness":{
				"baseColorFactor":[
					1,
					0.00797189399600029,
					0,
					1
				]
			}
		},
		{
			"doubleSided":true,
			"name":"Material.002",
			"pbrMetallicRoughness":{
				"baseColorTexture":{
					"index":0
				},
				"metallicFactor":0,
				"roughnessFactor":0.6777780055999756
			}
		},
		{
			"doubleSided":true,
			"name":"Material.003",
			"pbrMetallicRoughness":{
				"baseColorFactor":[
					0.15571799874305725,
					0.15571799874305725,
					0.15571799874305725,
					1
				],
				"metallicFactor":0.12222199887037277,
				"roughnessFactor":0.20000000298023224
			}
		}
	],
	"meshes":[
		{
			"name":"Object_3",
			"primitives":[
				{
					"attributes":{
						"POSITION":0,
						"NORMAL":1,
						"TEXCOORD_0":2
					},
					"indices":3,
					"material":0
				}
			]
		},
		{
			"name":"Object_4",
			"primitives":[
				{
					"attributes":{
						"POSITION":4,
						"NORMAL":5,
						"TEXCOORD_0":6
					},
					"indices":7,
					"material":1
				}
			]
		},
		{
			"name":"Object_5",
			"primitives":[
				{
					"attributes":{
						"POSITION":8,
						"NORMAL":9,
						"TEXCOORD_0":10
					},
					"indices":11,
					"material":2
				}
			]
		}
	],
	"textures":[
		{
			"sampler":0,
			"source":0
		}
	],
	"images":[
		{
			"mimeType":"image/png",
			"name":"Material_baseColor.png",
			"uri":"../../../../Downloads/tron_light_cycle/textures/Material_baseColor.png"
		}
	],
	"accessors":[
		{
			"bufferView":0,
			"componentType":5126,
			"count":1626,
			"max":[
				1.2960125207901,
				3.269563674926758,
				10.960004806518555
			],
			"min":[
				-1.6865031719207764,
				-1.6977616548538208,
				-2.0578453540802
			],
			"type":"VEC3"
		},
		{
			"bufferView":1,
			"componentType":5126,
			"count":1626,
			"type":"VEC3"
		},
		{
			"bufferView":2,
			"componentType":5126,
			"count":1626,
			"type":"VEC2"
		},
		{
			"bufferView":3,
			"componentType":5123,
			"count":4449,
			"type":"SCALAR"
		},
		{
			"bufferView":4,
			"componentType":5126,
			"count":4257,
			"max":[
				1.2960125207901,
				3.272512912750244,
				10.960004806518555
			],
			"min":[
				-1.6865031719207764,
				-2.0040974617004395,
				-2.0466814041137695
			],
			"type":"VEC3"
		},
		{
			"bufferView":5,
			"componentType":5126,
			"count":4257,
			"type":"VEC3"
		},
		{
			"bufferView":6,
			"componentType":5126,
			"count":4257,
			"type":"VEC2"
		},
		{
			"bufferView":7,
			"componentType":5123,
			"count":20211,
			"type":"SCALAR"
		},
		{
			"bufferView":8,
			"componentType":5126,
			"count":988,
			"max":[
				1.158729076385498,
				2.363184928894043,
				10.895468711853027
			],
			"min":[
				-1.5865652561187744,
				-1.8612459897994995,
				-1.238704800605774
			],
			"type":"VEC3"
		},
		{
			"bufferView":9,
			"componentType":5126,
			"count":988,
			"type":"VEC3"
		},
		{
			"bufferView":10,
			"componentType":5126,
			"count":988,
			"type":"VEC2"
		},
		{
			"bufferView":11,
			"componentType":5123,
			"count":2928,
			"type":"SCALAR"
		}
	],
	"bufferViews":[
		{
			"buffer":0,
			"byteLength":19512,
			"byteOffset":0,
			"target":34962
		},
		{
			"buffer":0,
			"byteLength":19512,
			"byteOffset":19512,
			"target":34962
		},
		{
			"buffer":0,
			"byteLength":13008,
			"byteOffset":39024,
			"target":34962
		},
		{
			"buffer":0,
			"byteLength":8898,
			"byteOffset":52032,
			"target":34963
		},
		{
			"buffer":0,
			"byteLength":51084,
			"byteOffset":60932,
			"target":34962
		},
		{
			"buffer":0,
			"byteLength":51084,
			"byteOffset":112016,
			"target":34962
		},
		{
			"buffer":0,
			"byteLength":34056,
			"byteOffset":163100,
			"target":34962
		},
		{
			"buffer":0,
			"byteLength":40422,
			"byteOffset":197156,
			"target":34963
		},
		{
			"buffer":0,
			"byteLength":11856,
			"byteOffset":237580,
			"target":34962
		},
		{
			"buffer":0,
			"byteLength":11856,
			"byteOffset":249436,
			"target":34962
		},
		{
			"buffer":0,
			"byteLength":7904,
			"byteOffset":261292,
			"target":34962
		},
		{
			"buffer":0,
			"byteLength":5856,
			"byteOffset":269196,
			"target":34963
		}
	],
	"samplers":[
		{
			"magFilter":9729,
			"minFilter":9987
		}
	],
	"buffers":[
		{
			"byteLength":275052,
			"uri":"cycle.bin"
		}
	]
}
